<?xml version="1.0" standalone="no"?>
<!DOCTYPE svg PUBLIC "-//W3C//DTD SVG 20010904//EN"
 "http://www.w3.org/TR/2001/REC-SVG-20010904/DTD/svg10.dtd">
<svg version="1.0" xmlns="http://www.w3.org/2000/svg"
 width="240.000000pt" height="240.000000pt" viewBox="0 0 240.000000 240.000000"
 preserveAspectRatio="xMidYMid meet">
<metadata>
Created by potrace 1.11, written by Peter Selinger 2001-2013
</metadata>
<g transform="translate(0.000000,240.000000) scale(0.100000,-0.100000)"
fill="#000000" stroke="none">
<path d="M1950 2394 c-14 -2 -59 -9 -99 -15 -145 -21 -310 -91 -447 -187 -39
-28 -147 -127 -239 -221 l-169 -171 -418 0 -418 0 0 -333 0 -333 75 -74 75
-74 0 -68 c0 -59 -3 -71 -22 -86 -13 -9 -48 -42 -78 -73 -156 -159 -228 -407
-197 -671 l8 -67 67 -8 c169 -20 347 6 485 70 80 38 182 111 222 160 15 18 33
40 41 50 11 13 29 17 80 17 l66 0 77 -75 77 -75 327 0 327 0 0 412 0 412 180
181 c189 188 247 260 309 385 105 208 145 468 93 602 -43 107 -115 178 -222
219 -52 20 -152 31 -200 23z m165 -163 c50 -22 109 -87 125 -136 28 -84 -7
-302 -70 -441 -57 -127 -118 -204 -321 -410 l-199 -200 0 -372 0 -372 -228 0
-228 0 -74 75 -74 75 -148 0 -147 0 -19 -43 c-27 -61 -73 -109 -147 -156 -99
-63 -200 -93 -329 -99 l-109 -5 5 109 c4 82 12 128 32 187 47 139 140 259 223
289 l33 12 0 156 0 156 -70 69 -70 69 0 228 0 228 373 0 372 0 190 191 c239
240 356 321 538 374 134 39 278 46 342 16z"/>
</g>
</svg>
